<?xml version="1.0" standalone="no"?>
<!DOCTYPE svg PUBLIC "-//W3C//DTD SVG 20010904//EN"
 "http://www.w3.org/TR/2001/REC-SVG-20010904/DTD/svg10.dtd">
<svg version="1.0" xmlns="http://www.w3.org/2000/svg"
 width="700.000000pt" height="700.000000pt" viewBox="0 0 700.000000 700.000000"
 preserveAspectRatio="xMidYMid meet">
<metadata>
Created by potrace 1.11, written by Peter Selinger 2001-2013
</metadata>
<g transform="translate(0.000000,700.000000) scale(0.100000,-0.100000)"
fill="#000000" stroke="none">
<path d="M1943 4861 c-858 -858 -1565 -1566 -1571 -1574 -11 -12 49 -76 365
-392 208 -208 372 -380 366 -382 -20 -7 -107 -123 -146 -193 -73 -134 -104
-277 -93 -432 22 -331 236 -605 556 -710 87 -28 107 -31 230 -32 101 0 152 4
205 18 129 35 256 104 348 190 l38 36 566 -565 566 -566 44 43 c25 24 284 282
576 575 524 524 557 553 557 498 0 -8 3 -15 8 -17 4 -1 23 -24 43 -50 145
-190 349 -336 569 -407 36 -12 74 -23 85 -25 11 -2 31 -7 45 -10 65 -15 94
-18 210 -21 69 -2 150 1 180 6 30 5 71 11 91 14 105 14 340 115 434 187 179
136 300 279 383 450 90 187 123 342 117 553 -7 254 -75 455 -227 665 -51 72
-156 179 -233 237 -27 21 -51 41 -53 46 -2 4 -9 7 -17 7 -7 0 -17 6 -23 13 -9
10 32 56 173 197 102 101 185 185 185 186 0 4 -3011 3014 -3014 3014 -2 0
-706 -702 -1563 -1559z"/>
</g>
</svg>
